<svg xmlns="http://www.w3.org/2000/svg" width="32" height="32" viewBox="0 0 32 32">
    <path fill="#0062FF" d="M29.659 27.317c0 2.151-1.532 3.903-3.415 3.903h-.488v-1.115h.488c1.345 0 2.439-1.25 2.439-2.788zM23.354.01c.21-.038.42.051.536.228.038.059.059.124.071.19l.005-.001 1.893 10.136.755.655 4.956-1.965.39.967-5.254 2.084c-.185.072-.393.037-.542-.092L22.841 9.33c-.286-.249-.721-.234-.99.032-.252.25-.284.64-.077.927l2.012 2.791c.119.165.13.384.03.56-.102.177-.301.284-.501.262l-5.06-.418c-.444-.04-.845.263-.933.697-.046.23.001.465.135.66.133.194.335.325.569.367l4.375.789c.247.044.428.255.432.504.003.248-.17.465-.416.517l-6.075 1.291c-.427.091-.705.51-.62.935.043.213.168.395.352.513.184.118.403.156.616.107l5.498-1.258c.242-.055.49.065.595.288.104.224.037.49-.162.637l-3.396 2.525c-.265.197-.35.552-.202.845.088.174.24.298.43.35.188.053.383.024.55-.08l4.648-2.934c.184-.116.422-.107.597.022.175.13.25.353.19.56l-.81 2.816c-.057.197.052.402.248.467.181.06.381-.023.467-.192l2.8-5.55c.05-.1.133-.183.234-.233l3.153-1.562.47.932-2.996 1.485-2.721 5.395c-.248.492-.758.787-1.29.787-.15 0-.302-.024-.45-.073-.73-.241-1.138-1.007-.926-1.742l.43-1.496-3.48 2.197c-.415.26-.923.335-1.395.206-.473-.13-.87-.454-1.089-.888-.02-.043-.034-.087-.051-.13l-1.972.361c.88.284 1.434 1.183 1.25 2.101-.1.492-.389.912-.814 1.184-.425.272-.93.359-1.422.247l-3.076-.704 1.408 1.047c.671.498.886 1.4.51 2.145-.218.434-.615.758-1.088.888-.472.13-.98.055-1.394-.206l-3.05-1.923.204.401c.419.832.077 1.846-.76 2.262-.24.12-.5.18-.76.18-.18 0-.363-.03-.54-.088-.43-.142-.78-.443-.982-.846l-2.55-5.054L0 23.747l.47-.932 3.153 1.563c.102.05.184.132.235.233l2.628 5.21c.077.153.21.268.375.322.165.054.341.042.496-.035.32-.158.45-.546.29-.863l-1.05-2.084c-.106-.21-.057-.463.118-.62.176-.157.436-.177.634-.053l4.65 2.933c.165.105.36.133.55.081.188-.052.34-.176.428-.35.148-.292.063-.648-.201-.845L9.379 25.78c-.199-.147-.265-.412-.16-.636.104-.223.353-.343.594-.288l5.497 1.258c.214.05.433.01.617-.107.184-.117.309-.3.352-.513.085-.425-.193-.844-.62-.935l-6.075-1.29c-.245-.052-.42-.27-.416-.518.005-.25.185-.46.432-.504l4.375-.79c.234-.041.436-.172.57-.367.133-.194.18-.43.134-.66-.088-.433-.486-.73-.934-.696l-5.059.418c-.203.02-.4-.085-.5-.262-.101-.176-.09-.395.03-.56l2.01-2.791c.208-.287.175-.677-.077-.927-.268-.266-.704-.281-.99-.033l-3.323 2.883c-.148.13-.356.165-.541.092L.04 16.471l.39-.967 3.063 1.214-1.497-8.022c-.026-.136.005-.276.083-.39L5.448 3.45c.079-.114.2-.192.337-.217zm4.744 25.747c0 2.151-1.532 3.903-3.415 3.903h-.488v-1.115h.488c1.345 0 2.439-1.25 2.439-2.788zm-8.096-5.582l-3.076.704c-.407.093-.82.042-1.193-.13-.025.33-.127.648-.32.929-.292.427-.736.714-1.25.807L12.4 22.8l1.033.22 4.517-.83c.092-.376.312-.722.644-.97l1.408-1.047zm3.161-18.322l-2.526 3.643.288 1.542-1.033.189-.232-1.242-5.684 1.043 1.148 6.147c.025.136-.005.276-.084.39-.079.114-.2.192-.337.217l-4.134.759c-.032.006-.064.008-.096.008-.027 0-.051-.009-.078-.013.18.084.35.195.499.341.616.611.695 1.566.189 2.268L9.73 19.021l3.928-.324c.362-.03.71.043 1.016.194.087-.766.65-1.431 1.446-1.6l3.48-.74-1.764-.318c-.514-.093-.958-.38-1.25-.807-.294-.428-.4-.943-.297-1.45.193-.953 1.073-1.611 2.052-1.53l3.928.324-1.352-1.877c-.507-.702-.427-1.656.189-2.268.66-.653 1.725-.687 2.426-.08l1.05.911-1.42-7.604zM8.808 7.976L3.125 9.019l1.523 8.157.739.293 3.08-2.673c.485-.42 1.14-.525 1.717-.34-.113-.076-.2-.19-.227-.334L8.808 7.976zm4.134-.76l-3.1.57 1.053 5.635 3.1-.57-1.053-5.634zm-1.496-3.963l-5.256.965L3.664 7.86l5.256-.965 2.526-3.642zm4.133-.758l-2.672.49-2.526 3.642 2.672-.49 2.526-3.642zm6.718-1.233l-5.256.965-2.526 3.642 5.256-.965 2.526-3.642zM7.024 0v1.115h-.487c-1.345 0-2.44 1.25-2.44 2.787h-.975C3.122 1.752 4.654 0 6.537 0h.487z"/>
</svg>
