<svg xmlns="http://www.w3.org/2000/svg" width="24" height="24" viewBox="0 0 24 24">
    <path fill="#0062FF" fill-rule="evenodd" d="M12 0c6.627 0 12 5.373 12 12s-5.373 12-12 12S0 18.627 0 12 5.373 0 12 0zm1.36 5.56l-.549.38c-.151.106-.19.315-.086.468l2.59 3.802h-6.63l2.59-3.802c.104-.153.065-.362-.086-.468l-.55-.38c-.151-.106-.359-.067-.463.086l-3.11 4.564H4.334c-.184 0-.333.15-.333.337v.673c0 .185.15.336.333.336h.423l2.038 6.464c.177.561.687.938 1.27.938h7.872c.583 0 1.093-.377 1.27-.938l2.038-6.464h.423c.184 0 .333-.15.333-.336v-.673c0-.186-.15-.337-.333-.337h-2.734l-3.109-4.564c-.104-.153-.312-.192-.463-.087z"/>
</svg>
