<svg xmlns="http://www.w3.org/2000/svg" width="31" height="40" viewBox="0 0 31 40">
    <g>
        <path d="M20.34 4.984c-4.4-2.223-9.7-1.373-13.188 2.115-4.054 4.055-4.46 10.519-.944 15.037.124.16.31.244.498.244.135 0 .272-.044.387-.133.275-.214.324-.61.11-.885-3.126-4.017-2.765-9.766.84-13.371 3.103-3.103 7.816-3.859 11.729-1.882.31.157.69.033.847-.278.157-.31.032-.69-.279-.847zM25.374 10.019c-.157-.311-.536-.436-.847-.279-.31.157-.435.536-.278.847 1.975 3.912 1.219 8.625-1.883 11.726-3.606 3.606-9.354 3.967-13.371.84-.275-.213-.671-.164-.885.111-.214.275-.164.67.11.885 2.059 1.601 4.52 2.39 6.974 2.39 2.934 0 5.856-1.127 8.064-3.334 3.487-3.488 4.338-8.787 2.116-13.186zM23.745 7.618c-.156-.177-.32-.351-.487-.519-.168-.167-.342-.331-.519-.487-.26-.231-.66-.206-.89.054-.23.261-.206.66.055.89.157.14.313.285.462.435.15.149.295.304.435.462.124.14.298.213.472.213.149 0 .297-.053.417-.159.261-.23.286-.628.055-.89z"/>
        <path d="M30.083 16.282c.42-.69.42-1.546 0-2.236l-.83-1.36c-.108-.179-.15-.392-.118-.599l.247-1.57c.126-.8-.203-1.594-.858-2.07l-1.285-.935c-.17-.124-.29-.304-.34-.509l-.374-1.546c-.19-.786-.797-1.392-1.582-1.582L23.396 3.5c-.204-.05-.385-.17-.508-.34l-.935-1.285c-.477-.656-1.27-.985-2.07-.859l-1.572.248c-.207.032-.42-.01-.599-.12l-1.36-.829c-.69-.42-1.546-.42-2.235 0l-1.36.83c-.18.109-.392.15-.6.118l-1.57-.247c-.8-.126-1.594.203-2.07.858L7.582 3.16c-.124.17-.304.29-.509.34l-1.546.374c-.786.19-1.392.796-1.582 1.582L3.57 7.003c-.05.204-.17.384-.34.508l-1.285.935c-.656.476-.984 1.27-.859 2.07l.248 1.571c.032.207-.01.42-.12.6l-.829 1.36c-.42.689-.42 1.546 0 2.235l.83 1.36c.109.18.151.392.119.6l-.248 1.57c-.126.8.203 1.593.858 2.07l1.286.935c.17.123.29.304.34.508l.374 1.547c.19.786.796 1.392 1.582 1.582l.646.156L1.8 36.361c-.093.208-.067.449.068.632.134.183.357.28.582.252l3.518-.42 2.026 2.905c.119.17.312.27.517.27.02 0 .04-.001.059-.003.226-.021.423-.162.516-.37l4.465-9.959.565.345c.345.21.732.315 1.118.315.387 0 .773-.105 1.118-.315l.586-.357 4.47 9.971c.093.208.29.349.516.37l.06.003c.204 0 .398-.1.516-.27l2.027-2.905 3.517.42c.226.027.448-.07.583-.252.134-.183.16-.424.067-.632l-4.374-9.756.622-.15c.786-.19 1.392-.797 1.582-1.582l.374-1.547c.05-.204.17-.385.34-.508l1.286-.935c.655-.477.984-1.27.858-2.07l-.247-1.572c-.033-.207.01-.42.119-.599l.83-1.36zM8.391 38.096l-1.606-2.303c-.133-.19-.36-.293-.591-.265l-2.788.333 3.983-8.884c.073.053.138.117.192.191l.935 1.286c.089.122.189.233.297.331l-2.096 4.677c-.142.317 0 .69.317.833.084.037.172.055.258.055.24 0 .47-.139.575-.373l2.09-4.66c.205.029.416.028.629-.005l1.571-.247c.094-.015.19-.014.282.002L8.39 38.096zm18.697-2.235l-2.787-.333c-.231-.028-.459.074-.592.265l-1.606 2.303-4.049-9.033c.085-.011.172-.011.257.002l1.571.247c.221.035.441.034.655.002l2.09 4.663c.105.234.335.373.576.373.086 0 .173-.018.257-.055.318-.142.46-.516.317-.833l-2.104-4.694c.102-.095.195-.199.279-.314l.935-1.285c.059-.081.131-.15.212-.207l3.99 8.899zm1.919-20.235l-.83 1.36c-.264.434-.366.95-.287 1.451l.247 1.571c.052.33-.084.658-.355.855l-1.285.935c-.412.3-.704.737-.824 1.231l-.374 1.547c-.079.324-.329.575-.653.653l-1.547.374c-.495.12-.932.413-1.232.824l-.934 1.286c-.197.27-.525.406-.855.354l-1.57-.247c-.503-.08-1.018.023-1.452.287l-1.36.83c-.285.173-.639.173-.923 0l-1.36-.83c-.339-.206-.726-.314-1.119-.314-.11 0-.222.009-.333.026l-1.571.248c-.33.052-.658-.084-.855-.355L8.6 26.427c-.299-.412-.736-.704-1.23-.824l-1.548-.374c-.324-.079-.574-.329-.653-.653l-.374-1.547c-.12-.495-.412-.932-.824-1.232l-1.285-.935c-.27-.196-.406-.524-.354-.854l.247-1.57c.079-.503-.023-1.018-.288-1.452l-.83-1.36c-.173-.285-.173-.639 0-.923l.83-1.36c.265-.434.367-.95.288-1.452l-.247-1.571c-.052-.33.084-.658.354-.855l1.286-.935c.411-.299.704-.736.824-1.23l.374-1.548c.078-.324.329-.574.653-.653l1.547-.374c.495-.12.932-.412 1.231-.824l.935-1.285c.197-.27.524-.407.855-.354l1.57.247c.502.079 1.018-.023 1.452-.288l1.36-.83c.284-.173.638-.173.923 0l1.36.83c.434.265.95.367 1.451.288l1.572-.247c.33-.052.657.084.854.354l.935 1.285c.3.412.737.705 1.231.824l1.547.375c.325.078.575.328.653.653l.375 1.547c.12.494.412.932.823 1.231l1.286.935c.27.197.406.524.354.854l-.247 1.571c-.08.502.023 1.018.287 1.452l.83 1.36c.173.284.173.638 0 .923z"/>
        <path d="M22.61 13.203c-.138-.428-.502-.726-.949-.78l-3.793-.45-1.6-3.467c-.188-.409-.584-.662-1.034-.662-.45 0-.846.253-1.034.662l-1.6 3.468-3.793.45c-.447.053-.81.351-.95.779-.138.427-.02.883.31 1.188l2.805 2.593-.744 3.747c-.088.44.084.879.447 1.143.201.146.434.22.668.22.19 0 .382-.049.558-.147l3.333-1.866 3.333 1.866c.393.22.862.192 1.226-.073.364-.264.535-.702.448-1.143l-.745-3.747 2.805-2.593c.33-.305.449-.76.31-1.188zm-4.229 3.095c-.16.15-.233.371-.19.586l.762 3.834-3.411-1.91c-.096-.053-.202-.08-.308-.08-.106 0-.212.027-.308.08l-3.41 1.91.761-3.834c.043-.215-.03-.437-.19-.586l-2.87-2.653 3.882-.46c.218-.026.406-.164.498-.363l1.637-3.549 1.637 3.55c.092.198.28.336.499.361l3.881.46-2.87 2.654z"/>
    </g>
</svg>
