<svg xmlns="http://www.w3.org/2000/svg" width="50" height="37" viewBox="0 0 50 37">
    <g>
        <path d="M40.866.04H2.453C1.1.04 0 1.14 0 2.493v25.052c0 1.353 1.1 2.453 2.453 2.453H26.67c.432 0 .783-.35.783-.783 0-.432-.35-.783-.783-.783H2.453c-.49 0-.887-.398-.887-.887V2.493c0-.49.398-.887.887-.887h38.413c.49 0 .888.398.888.887v10.856c0 .432.35.783.783.783.432 0 .783-.35.783-.783V2.493C43.32 1.14 42.219.04 40.866.04z"/>
        <path d="M39.196 15.071c-5.957 0-10.803 4.847-10.803 10.804s4.846 10.804 10.803 10.804C45.153 36.679 50 31.832 50 25.875s-4.847-10.804-10.804-10.804zm0 20.042c-5.094 0-9.238-4.144-9.238-9.238 0-5.094 4.144-9.238 9.238-9.238 5.094 0 9.238 4.144 9.238 9.238 0 5.094-4.144 9.238-9.238 9.238zM13.309 5.885h-6.68c-.893 0-1.619.726-1.619 1.618v5.01c0 .893.726 1.619 1.618 1.619h6.681c.892 0 1.618-.726 1.618-1.618v-5.01c0-.893-.726-1.619-1.618-1.619zm-4.958 6.681H6.628c-.028 0-.052-.023-.052-.052v-5.01c0-.03.024-.053.052-.053h1.723v5.115zm5.01-.052c0 .029-.023.052-.052.052H9.917v-1.774h.887c.432 0 .783-.351.783-.783 0-.433-.35-.783-.783-.783h-.887V7.45h3.392c.029 0 .052.024.052.052v5.01zM33.768 5.05c-.924 0-1.785.279-2.503.755-.74-.49-1.61-.755-2.507-.755-2.504 0-4.54 2.037-4.54 4.541 0 2.504 2.036 4.54 4.54 4.54.925 0 1.785-.278 2.504-.755.74.49 1.611.756 2.506.756 2.504 0 4.541-2.037 4.541-4.54 0-2.505-2.037-4.542-4.54-4.542zm-3.679 7.2c-.4.202-.853.316-1.331.316-1.64 0-2.975-1.335-2.975-2.975 0-1.64 1.334-2.975 2.975-2.975.467 0 .922.11 1.333.316-.542.748-.863 1.666-.863 2.659 0 .965.307 1.892.861 2.66zm3.68.316c-.467 0-.923-.11-1.334-.316.543-.748.864-1.667.864-2.659 0-.432-.351-.783-.783-.783-.433 0-.783.35-.783.783 0 .59-.173 1.14-.47 1.602-.303-.474-.47-1.027-.47-1.602 0-1.64 1.335-2.975 2.975-2.975 1.64 0 2.975 1.335 2.975 2.975 0 1.64-1.334 2.975-2.975 2.975zM12.474 18.412h-6.68c-.433 0-.784.35-.784.782 0 .433.35.783.783.783h6.68c.433 0 .784-.35.784-.783 0-.432-.35-.782-.783-.782zM25.835 23.422H5.793c-.432 0-.783.35-.783.783 0 .432.35.783.783.783h20.042c.432 0 .783-.35.783-.783 0-.433-.35-.783-.783-.783zM22.495 18.412h-6.68c-.433 0-.784.35-.784.782 0 .433.35.783.783.783h6.68c.433 0 .784-.35.784-.783 0-.432-.35-.782-.783-.782zM27.505 18.412h-1.67c-.432 0-.783.35-.783.782 0 .433.35.783.783.783h1.67c.433 0 .783-.35.783-.783 0-.432-.35-.782-.783-.782z"/>
        <path d="M45.595 21.981c-.305-.306-.801-.306-1.107 0l-6.962 6.962-3.622-3.622c-.305-.305-.801-.305-1.107 0-.306.306-.306.802 0 1.108l4.176 4.175c.152.153.353.23.553.23.2 0 .4-.077.554-.23l7.515-7.516c.306-.305.306-.801 0-1.107z"/>
    </g>
</svg>
