<svg xmlns="http://www.w3.org/2000/svg" width="40.992" height="35.948" viewBox="0 0 40.992 35.948">
  <g id="purse" transform="translate(0 -31.5)">
    <path id="Контур_1303" data-name="Контур 1303" d="M34.79,65.481H3.206l-.037,0A3.2,3.2,0,0,0,0,68.685v.59c0-.1.005.2.014.1a3.2,3.2,0,0,0,3.189,2.914l31.582-.4s0,.4,0,.4c2.1,0,3.8,1.306,3.8,3.4V69.284A3.807,3.807,0,0,0,34.79,65.481Z" transform="translate(-0.003 -31.26)" fill="#1b00d4"/>
    <path id="Контур_1304" data-name="Контур 1304" d="M34.788,112.013H3.2A3.2,3.2,0,0,1,.014,109.1c-.008.1-.014.206-.014.311,0,0,0,0,0,0v25.618s0,0,0,0a3.807,3.807,0,0,0,3.8,3.8H34.788a3.807,3.807,0,0,0,3.8-3.8h0V115.816A3.807,3.807,0,0,0,34.788,112.013Z" transform="translate(0 -71.387)" fill="#0062ff"/>
    <path id="Контур_1305" data-name="Контур 1305" d="M406.9,145.488h-2.394a3.807,3.807,0,0,1,3.795,3.8v19.216h0a3.807,3.807,0,0,1-3.8,3.8h2.4a3.807,3.807,0,0,0,3.8-3.8h0V149.291A3.807,3.807,0,0,0,406.9,145.488Z" transform="translate(-372.115 -104.861)" fill="#1b00d4"/>
    <path id="Контур_1306" data-name="Контур 1306" d="M406.993,65.481H404.6a3.807,3.807,0,0,1,3.795,3.8v2.871a3.808,3.808,0,0,1,2.4,3.535V69.284A3.807,3.807,0,0,0,406.993,65.481Z" transform="translate(-372.206 -31.26)" fill="#0062ff"/>
    <path id="Контур_1307" data-name="Контур 1307" d="M349.805,231.765H340.8l-.052,0a.581.581,0,0,0-.058.008h-.007l-.047.012-.01,0-.04.014-.015.005-.032.015-.021.01-.024.014-.027.016-.017.012-.031.023-.012.011-.031.029-.015.016-.026.029c-.012.015-.023.03-.034.046h0l-3.2,4.8a.6.6,0,0,0-.056.106c-.006.014-.01.028-.015.042l0,.013c0,.015-.008.03-.011.045l0,.012c0,.013,0,.027-.006.041s0,.012,0,.017,0,.022,0,.033,0,.017,0,.026,0,.016,0,.025,0,.023,0,.034,0,.011,0,.017,0,.027.006.041l0,.011c0,.015.007.03.011.045l0,.013c0,.014.009.028.015.042a.6.6,0,0,0,.057.106l3.2,4.8h0a.648.648,0,0,0,.042.055l.015.017.032.032.02.018.036.029.017.012a.615.615,0,0,0,.056.034l.015.007.047.021.019.007.047.015.019.005.049.009.018,0a.585.585,0,0,0,.063,0h8.412a1.8,1.8,0,0,0,1.8-1.8v-10.2A1.2,1.2,0,0,1,349.805,231.765Z" transform="translate(-310.014 -183.131)" fill="#2000ff"/>
    <path id="Контур_1308" data-name="Контур 1308" d="M462.5,231.765h-1.2v9.007a1.8,1.8,0,0,1-1.8,1.8h2.4a1.8,1.8,0,0,0,1.8-1.8v-10.2A1.2,1.2,0,0,1,462.5,231.765Z" transform="translate(-422.708 -183.131)" fill="#0062ff"/>
    <g id="Сгруппировать_3357" data-name="Сгруппировать 3357" transform="translate(3.203 37.425)">
      <path id="Контур_1309" data-name="Контур 1309" d="M483.2,215.493H482v1.195s0,0,0,.006,0,0,0,.006v1.195h1.2a1.2,1.2,0,1,0,0-2.4Z" transform="translate(-446.613 -206.686)" fill="#131313"/>
      <path id="Контур_1310" data-name="Контур 1310" d="M70.787,106.7H40.6a.6.6,0,1,1,0-1.2H70.787a.6.6,0,1,1,0,1.2Z" transform="translate(-40.003 -105.497)"/>
    </g>
    <path id="Контур_1311" data-name="Контур 1311" d="M391.5,292a2,2,0,1,1,2-2A2,2,0,0,1,391.5,292Z" transform="translate(-358.313 -235.958)" fill="#fefefe"/>
    <path id="Контур_1312" data-name="Контур 1312" d="M86.217,37.905,63.881,31.523l-.01,0-.01,0-.02,0-.031-.006-.028,0-.033,0h-.06l-.025,0-.034,0-.024,0-.034.007-.022.006-.034.01-.021.008-.033.014-.019.01-.032.017-.018.011-.03.02-.017.013-.028.023-.017.015-.025.025-.016.018-.022.026-.015.021-.018.026-.014.025-.014.027-.013.028-.011.027c0,.01-.007.02-.01.03s0,.013-.006.019l0,.01,0,.01L61.646,37.9H86.217Z" transform="translate(-56.71 0)" fill="#7fd127"/>
  </g>
</svg>
