<svg xmlns="http://www.w3.org/2000/svg" width="50" height="32" viewBox="0 0 50 32">
    <g>
        <path d="M46.5 13.414l-1.295-5.179c.354-.075.62-.39.62-.765v-.835c0-1.814-1.475-3.289-3.288-3.289h-5.898V1.624c0-.892-.726-1.618-1.618-1.618H4.958c-.892 0-1.618.726-1.618 1.618V15.82c0 .433.35.783.783.783.432 0 .783-.35.783-.783V1.624c0-.029.023-.052.052-.052h30.063c.029 0 .052.023.052.052v14.197c0 .432.35.782.783.782.432 0 .783-.35.783-.782v-.888h9.239c1.137 0 2.102.747 2.433 1.775h-2.434c-.433 0-.783.35-.783.783v1.67c0 1.352 1.1 2.453 2.453 2.453h.887v3.444h-2.047c-.672-1.941-2.518-3.34-4.686-3.34-2.167 0-4.013 1.399-4.685 3.34h-.377v-5.897c0-.433-.35-.783-.783-.783-.433 0-.783.35-.783.783v5.897H18.83c-.673-1.942-2.518-3.34-4.686-3.34-2.167 0-4.013 1.398-4.686 3.34h-4.5c-.029 0-.052-.023-.052-.052v-1.722H8.3c.432 0 .782-.35.782-.783 0-.433-.35-.783-.782-.783H.783c-.432 0-.783.35-.783.783 0 .432.35.783.783.783H3.34v1.722c0 .892.726 1.618 1.618 1.618h4.23l-.002.052c0 2.734 2.224 4.958 4.958 4.958s4.958-2.224 4.958-4.958l-.001-.052h17.643v.052c0 2.734 2.223 4.958 4.957 4.958s4.958-2.224 4.958-4.958v-.052h2.558c.432 0 .783-.35.783-.783v-8.35c0-2.062-1.521-3.775-3.5-4.077zm-9.861-8.502h5.898c.95 0 1.722.773 1.722 1.723v.052h-7.62V4.912zm0 8.455V8.252h6.956l1.28 5.115h-8.236zM14.144 30.07c-1.87 0-3.392-1.522-3.392-3.393 0-1.87 1.521-3.392 3.392-3.392 1.87 0 3.393 1.522 3.393 3.392 0 1.871-1.522 3.393-3.393 3.393zm27.557 0c-1.87 0-3.392-1.522-3.392-3.393 0-1.87 1.522-3.392 3.392-3.392 1.871 0 3.393 1.522 3.393 3.392 0 1.871-1.522 3.393-3.393 3.393zm6.733-10.021h-.887c-.49 0-.887-.398-.887-.887v-.888h1.774v1.775z"/>
        <path d="M14.144 25.058c-.892 0-1.618.726-1.618 1.618 0 .892.726 1.618 1.618 1.618.892 0 1.618-.726 1.618-1.618 0-.892-.726-1.618-1.618-1.618zM41.701 25.058c-.892 0-1.618.726-1.618 1.618 0 .892.726 1.618 1.618 1.618.893 0 1.618-.726 1.618-1.618 0-.892-.725-1.618-1.618-1.618zM32.516 21.718H20.825c-.433 0-.783.35-.783.783 0 .432.35.783.783.783h11.69c.433 0 .784-.35.784-.783 0-.432-.351-.783-.783-.783zM12.474 18.378H2.453c-.432 0-.783.35-.783.783 0 .432.35.783.783.783h10.02c.433 0 .784-.35.784-.783 0-.433-.35-.783-.783-.783zM27.224 7.751c-.306-.306-.802-.306-1.107 0l-6.963 6.962-3.621-3.622c-.306-.305-.802-.305-1.107 0-.306.306-.306.802 0 1.107l4.175 4.176c.153.153.353.23.553.23.2 0 .401-.077.554-.23l7.516-7.516c.305-.306.305-.801 0-1.107z"/>
    </g>
</svg>
